<svg xmlns="http://www.w3.org/2000/svg" viewBox="0 0 100 100">
  <rect width="100" height="100" rx="22" fill="#db2777"/>
  <circle cx="37" cy="28" r="13" fill="#fff"/>
  <path d="M37 44c-12 0-19 9-19 22v12h38V66c0-13-7-22-19-22z" fill="#fff"/>
  <circle cx="67" cy="55" r="14" fill="#db2777"/>
  <path d="M67 69c-11 0-17 7-17 17v6h34v-6c0-10-6-17-17-17z" fill="#db2777"/>
  <circle cx="67" cy="55" r="9.5" fill="#fff"/>
  <path d="M67 66c-8 0-12 5-12 13v3h24v-3c0-8-4-13-12-13z" fill="#fff"/>
</svg>
